<svg xmlns="http://www.w3.org/2000/svg" width="53.333" height="44.058" viewBox="0 0 53.333 44.058">
  <g id="user_5_" data-name="user (5)" transform="translate(0 -42.666)">
    <g id="Group_2004" data-name="Group 2004" transform="translate(0 42.666)">
      <g id="Group_2003" data-name="Group 2003" transform="translate(0 0)">
        <path id="Path_879" data-name="Path 879" d="M26.585,64.284a11.594,11.594,0,1,0-11.432,0C6.419,66.578,0,73.963,0,82.717v2.847a1.159,1.159,0,0,0,2.319,0V82.717c0-9.3,8.322-16.862,18.551-16.862S39.42,73.421,39.42,82.717v2.847a1.159,1.159,0,1,0,2.319,0V82.717C41.739,73.963,35.32,66.576,26.585,64.284ZM11.594,54.26a9.275,9.275,0,1,1,9.275,9.275A9.285,9.285,0,0,1,11.594,54.26Z" transform="translate(0 -42.666)" fill="#1b76af"/>
        <path id="Path_880" data-name="Path 880" d="M336.923,102.345a9.266,9.266,0,0,0-5.1-17.011,1.159,1.159,0,1,0,0,2.319,6.956,6.956,0,1,1,0,13.913,1.159,1.159,0,1,0,0,2.319c7.673,0,13.913,5.767,13.913,12.858v2.214a1.159,1.159,0,0,0,2.319,0v-2.214A15.326,15.326,0,0,0,336.923,102.345Z" transform="translate(-294.725 -80.696)" fill="#1b76af"/>
      </g>
    </g>
  </g>
</svg>
