<svg xmlns="http://www.w3.org/2000/svg" width="52.645" height="55.149" viewBox="0 0 52.645 55.149">
  <path id="technical" d="M51.5,30.556,45.891,26.4l.013-.016a3.169,3.169,0,0,0-.495-4.449,3.136,3.136,0,0,0-1.835-.692,3.2,3.2,0,0,0-3.484-3.852c-.068.008-.135.017-.2.029a3.194,3.194,0,0,0-1.194-2.3h0a3.183,3.183,0,0,0-2.354-.682l-.1.012a3.2,3.2,0,0,0-5.7-1.935l-.438.548a3.883,3.883,0,0,0-2.324-.45,4.015,4.015,0,0,0-.4.067l-1.085-.8a6.8,6.8,0,0,1-2.481-3.589L22.044,2.033a.631.631,0,0,0-.023-.069,2.79,2.79,0,0,0-2.549-1.8L12.213,0a1.5,1.5,0,0,0-1.242.608l-.371.5a1.5,1.5,0,0,0,.312,2.1L15.622,6.7a1.859,1.859,0,0,1-2.214,2.988L8.7,6.2a1.5,1.5,0,0,0-2.1.313l-.371.5a1.506,1.506,0,0,0-.22,1.365l.611,1.852a.808.808,0,1,0,1.534-.506l-.592-1.8.268-.362,4.619,3.422A3.475,3.475,0,1,0,16.584,5.4L11.966,1.977l.268-.362,7.2.168a1.18,1.18,0,0,1,1.066.73l1.759,6.205a8.425,8.425,0,0,0,3.073,4.447l.4.293a4.114,4.114,0,0,0-.549.531l0,0-.032.038-.007.009-.029.035-.008.011-.035.044L22.8,17l-.088.116,0,0-.039.053-.008.011-.033.047-.006.008-.2-.146a8.426,8.426,0,0,0-5.149-1.646l-6.448.122a1.179,1.179,0,0,1-1.009-.807l-.453-1.373a.808.808,0,0,0-1.534.506l.453,1.373a2.79,2.79,0,0,0,2.46,1.915c.024,0,.049,0,.073,0l6.49-.123a6.79,6.79,0,0,1,4.156,1.328l.438.325a5.152,5.152,0,0,0-.143.585l-2.312,9.51-.6.826a1.026,1.026,0,0,0-1.143.479l-.952,1.65a1.034,1.034,0,0,0-1.069.405L.772,52.872a1.436,1.436,0,0,0,1.165,2.275H22.67a1.437,1.437,0,0,0,1.311-.851l.849-1.9a.808.808,0,0,0-1.476-.658l-.8,1.8H2.288l14.4-19.991,11.792,6.708L24.935,48.2a.808.808,0,0,0,1.476.658l3.762-8.427a1.032,1.032,0,0,0-.178-1.118l.908-1.572A1.017,1.017,0,0,0,31.013,37l4.514-.661a.81.81,0,0,0,.144-.035,5.714,5.714,0,0,0,2.87-1.785L40.3,32.363l6.364,4.718a4.029,4.029,0,0,0,2.41.8,4.146,4.146,0,0,0,.605-.045A4.061,4.061,0,0,0,51.5,30.556ZM35,21.54l.459-.573c.031-.038.06-.077.089-.117l.042-.06q.021-.03.04-.061a2.9,2.9,0,0,0,.456-1.914c0-.012,0-.023,0-.034v-.011c0-.008,0-.016,0-.023s0-.01,0-.015l0-.02,0-.014c0-.007,0-.013,0-.019l0-.016,0-.017c0-.005,0-.011,0-.016s0-.012,0-.019l0-.015,0-.018,0-.016,0-.017c0-.006,0-.011,0-.017l0-.016,0-.017,0-.016c0-.005,0-.011,0-.017l0-.015,0-.019,0-.014,0-.019,0-.014c0-.006,0-.012-.005-.019s0-.008,0-.012l-.005-.02,0-.012-.006-.02,0-.015c-.007-.024-.015-.048-.023-.071l0-.008-.008-.021,0-.01-.007-.02,0-.012-.006-.017-.005-.014-.007-.018L35.9,18.08l-.008-.019-.005-.012-.007-.018-.006-.014L35.871,18l-.006-.013-.007-.017-.006-.014-.008-.017-.006-.012-.008-.018a.124.124,0,0,0-.006-.013l-.008-.017-.007-.013L35.8,17.85l-.007-.014-.008-.016-.007-.013-.009-.017-.005-.01-.015-.028-.011-.019-.006-.011-.01-.018-.008-.013-.01-.016-.007-.011-.011-.017-.007-.012-.011-.017-.008-.012-.01-.015-.009-.014-.009-.014-.009-.013-.01-.014-.009-.013-.01-.015-.009-.013-.011-.015-.009-.013-.011-.015-.009-.012-.012-.016-.008-.01-.014-.018-.006-.008-.016-.019-.005-.007-.019-.024,0,0q-.044-.052-.09-.1l0,0-.021-.022,0,0-.021-.022,0,0-.021-.022,0,0-.021-.021,0,0-.021-.021,0,0-.022-.021,0,0-.023-.022h0l-.058-.053.309-.387a1.586,1.586,0,0,1,2.575,1.845c-.03.034-.059.069-.087.1l-2.471,3.091c-.037.047-.073.094-.107.142a1.589,1.589,0,0,1-1.249.482A2.929,2.929,0,0,0,35,21.54Zm2.925,7.048L28.363,21.5a6.784,6.784,0,0,0-.072-.74,1,1,0,0,1,.443-.163.915.915,0,0,1,.683.193l1.553,1.241a2.806,2.806,0,0,0,.512.325A3.195,3.195,0,0,0,34.217,23.9a3.342,3.342,0,0,0,.36-.02c.068-.008.135-.017.2-.029a3.2,3.2,0,0,0,3.048,3,3.185,3.185,0,0,0,.1,1.729ZM31.807,13.516a1.586,1.586,0,1,1,2.477,1.98l-.4.5-2.479-1.978Zm-3.192,24.95L18.179,32.528l.629-1.089,10.4,6ZM37.287,33.5a4.064,4.064,0,0,1-2.069,1.252l-5.408.792a.808.808,0,0,0-.382.165l-9.152-5.284.56-.777a.836.836,0,0,0,.091-.154l0-.008,0-.006a.78.78,0,0,0,.047-.145l2.351-9.671c0-.016.007-.032.01-.049A3.64,3.64,0,0,1,24,18.1l0,0,.016-.022L24.066,18l2.268-2.875.028-.035h0a2.451,2.451,0,0,1,1.113-.773l.033-.012a2.383,2.383,0,0,1,.461-.1,2.262,2.262,0,0,1,1.683.476l.112.089,0,0,3.74,2.984,0,0,.531.423a1.2,1.2,0,0,1,.441.809,1.376,1.376,0,0,1,.008.161c0,.021,0,.043,0,.064s0,.043-.006.064a1.312,1.312,0,0,1-.283.674l-.458.573-.02.025,0,0-.017.02,0,.006-.016.017-.005.005-.019.021-.01.01-.01.01-.013.012-.006.006-.015.014a1.269,1.269,0,0,1-1.274.277l-.035-.011a1.176,1.176,0,0,1-.312-.179l-1.553-1.241a2.522,2.522,0,0,0-1.876-.536,2.613,2.613,0,0,0-1.754.975.806.806,0,0,0-.175.64h0c0,.015.005.029.008.044a5.192,5.192,0,0,1,.12,1.235c0,.021,0,.041,0,.061A4.8,4.8,0,0,1,25.719,24.7a.808.808,0,1,0,1.291.971,6.739,6.739,0,0,0,1.152-2.313L39,31.4Zm.86-8.26a1.586,1.586,0,0,1-1.511-2.431c.03-.034.058-.069.087-.1L39.2,19.61c.037-.046.073-.094.107-.141a1.573,1.573,0,0,1,.966-.475,1.591,1.591,0,0,1,.178-.01,1.586,1.586,0,0,1,1.235,2.576l-.457.571a3.306,3.306,0,0,0-.267.295l-1.942,2.429a1.574,1.574,0,0,1-.869.382Zm1.8,3.523a1.552,1.552,0,0,1-.242-2.178l.5-.624a3.292,3.292,0,0,0,.269-.3l1.94-2.426a1.541,1.541,0,0,1,.847-.372,1.617,1.617,0,0,1,.174-.01,1.55,1.55,0,0,1,1.208,2.519l-.528.661-.014.017-1.974,2.469a1.55,1.55,0,0,1-2.179.242Zm11.1,6.515a2.445,2.445,0,0,1-3.421.508l-6.838-5.069.117,0a3.266,3.266,0,0,0,.356-.02,3.144,3.144,0,0,0,2.123-1.169l1.494-1.869,5.66,4.2a2.448,2.448,0,0,1,.508,3.42Zm0,0" transform="translate(-0.5 0.002)" fill="#1b76af"/>
</svg>
