<svg xmlns="http://www.w3.org/2000/svg" width="58.666" height="58.667" viewBox="0 0 58.666 58.667">
  <g id="wallet_1_" data-name="wallet (1)" transform="translate(-0.003 0)">
    <g id="Group_2016" data-name="Group 2016" transform="translate(0.003 0)">
      <g id="Group_2015" data-name="Group 2015" transform="translate(0 0)">
        <path id="Path_902" data-name="Path 902" d="M56,29.58V21.334a5.322,5.322,0,0,0-4.909-5.29L43.436,2.669A5.277,5.277,0,0,0,36.2.718L9.947,16H5.336A5.339,5.339,0,0,0,0,21.334v32a5.339,5.339,0,0,0,5.333,5.333H50.669A5.339,5.339,0,0,0,56,53.334V45.088a3.994,3.994,0,0,0,2.667-3.754v-8A3.993,3.993,0,0,0,56,29.58ZM48,16H36.374l8.716-5.074Zm-4.23-7.389L31.074,16H25.81L42.449,6.313ZM37.539,3.023a2.579,2.579,0,0,1,1.98-.267,2.614,2.614,0,0,1,1.6,1.238l0,0L20.51,16H15.247Zm15.8,50.311A2.67,2.67,0,0,1,50.669,56H5.336A2.67,2.67,0,0,1,2.67,53.334v-32a2.67,2.67,0,0,1,2.667-2.667H50.669a2.67,2.67,0,0,1,2.667,2.667v8h-8a8,8,0,1,0,0,16h8v8Zm2.667-12a1.334,1.334,0,0,1-1.333,1.333H45.336a5.333,5.333,0,1,1,0-10.667h9.333A1.334,1.334,0,0,1,56,33.334Z" transform="translate(-0.003 0)" fill="#1b76af"/>
        <path id="Path_903" data-name="Path 903" d="M344,277.341a2.667,2.667,0,1,0,2.667,2.667A2.67,2.67,0,0,0,344,277.341Z" transform="translate(-298.671 -242.674)" fill="#1b76af"/>
      </g>
    </g>
  </g>
</svg>
