<svg xmlns="http://www.w3.org/2000/svg" width="56.471" height="61.649" viewBox="0 0 56.471 61.649">
  <g id="security" transform="translate(-21.502)">
    <path id="Path_896" data-name="Path 896" d="M22.715,309.122a1.214,1.214,0,1,0-1.213-1.216v.007A1.21,1.21,0,0,0,22.715,309.122Z" transform="translate(0 -269.765)" fill="#1b76af"/>
    <path id="Path_897" data-name="Path 897" d="M76.1,42.506l-6.973-3.764V26.021a4.084,4.084,0,0,0-3.767-4.331H64.255V18.948a18.939,18.939,0,0,0-37.879,0V21.69H25.269A4.084,4.084,0,0,0,21.5,26.021v6.715a1.213,1.213,0,1,0,2.425,0V26.021c0-1.015.627-1.906,1.342-1.906H65.361c.715,0,1.342.891,1.342,1.906v12.72l-6.984,3.768A2.763,2.763,0,0,0,57.856,45.4a18.548,18.548,0,0,0,2.354,8.828q.149.277.3.544H25.269c-.715,0-1.342-.891-1.342-1.906V43.545a1.213,1.213,0,1,0-2.425,0v9.322A4.084,4.084,0,0,0,25.269,57.2H62.1a14.759,14.759,0,0,0,4.158,3.864,2.652,2.652,0,0,0,3.326,0,17.118,17.118,0,0,0,6.039-6.834A18.549,18.549,0,0,0,77.972,45.4a2.766,2.766,0,0,0-1.871-2.9ZM56.055,21.69H34.575V18.948a10.74,10.74,0,1,1,21.48,0V21.69Zm5.774,0H58.48V18.948a13.165,13.165,0,0,0-26.33,0V21.69H28.8V18.948a16.514,16.514,0,1,1,33.029,0ZM73.48,53.083a14.976,14.976,0,0,1-5.147,5.9,3.743,3.743,0,0,1-.417.227,3.742,3.742,0,0,1-.417-.227h0a12.742,12.742,0,0,1-3.775-3.664l-.02-.028a21.356,21.356,0,0,1-1.356-2.207,16.128,16.128,0,0,1-2.066-7.66,2.526,2.526,0,0,1,.032-.457,6.267,6.267,0,0,1,.558-.322l7.044-3.8,7,3.781.033.018a6.329,6.329,0,0,1,.562.323,2.568,2.568,0,0,1,.032.458,16.131,16.131,0,0,1-2.067,7.66Z" transform="translate(0 0)" fill="#1b76af"/>
    <path id="Path_898" data-name="Path 898" d="M234.846,269.361h10.74a1.213,1.213,0,0,0,0-2.425h-10.74a1.213,1.213,0,0,0,0,2.425Z" transform="translate(-186.59 -234.795)" fill="#1b76af"/>
    <path id="Path_899" data-name="Path 899" d="M234.846,323.344h7.411a1.213,1.213,0,0,0,0-2.425h-7.411a1.213,1.213,0,0,0,0,2.425Z" transform="translate(-186.59 -282.278)" fill="#1b76af"/>
    <path id="Path_900" data-name="Path 900" d="M74.386,255.665a3.1,3.1,0,0,0,3.1,3.1H88.975a3.1,3.1,0,0,0,3.1-3.1,8.742,8.742,0,0,0-2.733-6.19,9.517,9.517,0,0,0-2.181-1.586,6.183,6.183,0,1,0-7.861,0,9.511,9.511,0,0,0-2.182,1.586,8.744,8.744,0,0,0-2.731,6.19Zm8.842-16.312a3.762,3.762,0,1,1-3.757,3.762A3.765,3.765,0,0,1,83.228,239.353Zm0,9.949a6.733,6.733,0,0,1,6.42,6.362.681.681,0,0,1-.673.671H77.481a.679.679,0,0,1-.67-.671A6.731,6.731,0,0,1,83.228,249.3Z" transform="translate(-46.516 -208.4)" fill="#1b76af"/>
    <path id="Path_901" data-name="Path 901" d="M379.706,386.829l-3.464,3.554-1.2-1.126a1.213,1.213,0,0,0-1.657,1.771l2.07,1.938a1.213,1.213,0,0,0,1.7-.039l4.294-4.4a1.213,1.213,0,0,0-1.737-1.693Z" transform="translate(-309.172 -339.93)" fill="#1b76af"/>
  </g>
</svg>
