<svg xmlns="http://www.w3.org/2000/svg" width="57.871" height="64.565" viewBox="0 0 57.871 64.565">
  <g id="brain" transform="translate(-24)">
    <path id="Path_868" data-name="Path 868" d="M103.7,161.824a4.539,4.539,0,0,1-4.427,3.563,1.046,1.046,0,0,0,0,2.092,6.634,6.634,0,0,0,6.549-5.632,8.777,8.777,0,0,0,5.354-2.6,1.046,1.046,0,0,0-1.494-1.464,6.763,6.763,0,0,1-11.595-4.733,1.046,1.046,0,0,0-2.092,0A8.867,8.867,0,0,0,103.7,161.824Z" transform="translate(-61.96 -130.804)" fill="#1b76af"/>
    <path id="Path_869" data-name="Path 869" d="M108.132,281.046A1.046,1.046,0,0,0,107.086,280a8.865,8.865,0,0,0-8.855,8.855c0,.05,0,.1,0,.152a8.882,8.882,0,0,0-1.188-.082,1.046,1.046,0,1,0,0,2.092,6.771,6.771,0,0,1,6.763,6.763,1.046,1.046,0,1,0,2.092,0,8.867,8.867,0,0,0-5.54-8.209,6.877,6.877,0,0,1-.038-.716,6.771,6.771,0,0,1,6.763-6.763A1.046,1.046,0,0,0,108.132,281.046Z" transform="translate(-61.96 -240.954)" fill="#1b76af"/>
    <path id="Path_870" data-name="Path 870" d="M81.871,31.167a8.831,8.831,0,0,0-2.632-6.3,8.847,8.847,0,0,0-6.766-11.32A6.629,6.629,0,0,0,68.93,5C65,1.866,60.7,0,57.4,0a5.5,5.5,0,0,0-4.462,2.285A5.5,5.5,0,0,0,48.473,0c-3.3,0-7.6,1.866-11.532,5A6.629,6.629,0,0,0,33.4,13.55a8.869,8.869,0,0,0-7.167,8.692,8.78,8.78,0,0,0,.4,2.628,8.84,8.84,0,0,0-1.068,11.314A8.763,8.763,0,0,0,24,41.207a8.864,8.864,0,0,0,4.534,7.725,9.965,9.965,0,0,0,6.871,10.691,9.964,9.964,0,0,0,17.53-.591,9.964,9.964,0,0,0,17.53.591,9.965,9.965,0,0,0,6.871-10.691,8.864,8.864,0,0,0,4.534-7.725,8.763,8.763,0,0,0-1.564-5.024A8.8,8.8,0,0,0,81.871,31.167ZM44.011,62.473a7.864,7.864,0,0,1-6.974-4.219,1.046,1.046,0,0,0-.654-.523,7.876,7.876,0,0,1-5.67-9.181,1.046,1.046,0,0,0-.6-1.164,6.771,6.771,0,0,1-4.022-6.178,6.7,6.7,0,0,1,.915-3.4,8.817,8.817,0,0,0,5.848,2.214,1.046,1.046,0,1,0,0-2.092,6.762,6.762,0,0,1-4.333-11.954,1.046,1.046,0,0,0,.3-1.2A6.762,6.762,0,1,1,41.85,22.242a1.046,1.046,0,1,0,2.092,0,8.865,8.865,0,0,0-8.286-8.835,4.533,4.533,0,0,1,2.106-6.485,1.033,1.033,0,0,0,.182-.073A4.531,4.531,0,0,1,43.628,9.11,1.046,1.046,0,0,0,45.51,8.2a6.674,6.674,0,0,0-4.432-3.551,15.179,15.179,0,0,1,7.4-2.553A3.42,3.42,0,0,1,51.89,5.508V19.042a5.48,5.48,0,0,0-3.417-1.192,1.046,1.046,0,1,0,0,2.092,3.42,3.42,0,0,1,3.417,3.417V48.5a9.956,9.956,0,0,0-5.29-3.523,1.046,1.046,0,1,0-.543,2.02,7.874,7.874,0,0,1-2.046,15.479ZM75.758,47.386a1.046,1.046,0,0,0-.6,1.164,7.876,7.876,0,0,1-5.67,9.181,1.045,1.045,0,0,0-.654.523,7.877,7.877,0,0,1-14.853-3.66c0-.294-.014-.586-.039-.874a1.046,1.046,0,0,0,.039-.281V18.9A3.42,3.42,0,0,1,57.4,15.479a1.046,1.046,0,0,0,0-2.092,5.48,5.48,0,0,0-3.417,1.192V5.508A3.42,3.42,0,0,1,57.4,2.092a15.179,15.179,0,0,1,7.4,2.553A6.673,6.673,0,0,0,60.362,8.2a1.046,1.046,0,0,0,1.882.914,4.531,4.531,0,0,1,5.685-2.261,1.033,1.033,0,0,0,.182.073,4.533,4.533,0,0,1,2.106,6.485,8.865,8.865,0,0,0-8.286,8.835,1.046,1.046,0,1,0,2.092,0,6.763,6.763,0,1,1,13.029,2.539,1.046,1.046,0,0,0,.3,1.2A6.762,6.762,0,0,1,73.016,37.93a1.046,1.046,0,1,0,0,2.092,8.817,8.817,0,0,0,5.848-2.214,6.7,6.7,0,0,1,.915,3.4A6.771,6.771,0,0,1,75.758,47.386Z" transform="translate(0 0)" fill="#1b76af"/>
    <path id="Path_871" data-name="Path 871" d="M284.2,157.387a4.539,4.539,0,0,1-4.427-3.563,8.867,8.867,0,0,0,7.7-8.778,1.046,1.046,0,1,0-2.092,0,6.763,6.763,0,0,1-11.595,4.733,1.046,1.046,0,0,0-1.494,1.464,8.777,8.777,0,0,0,5.354,2.6,6.634,6.634,0,0,0,6.549,5.632,1.046,1.046,0,1,0,0-2.092Z" transform="translate(-213.413 -123.919)" fill="#1b76af"/>
    <path id="Path_872" data-name="Path 872" d="M267.086,272.925a8.887,8.887,0,0,0-1.188.082c0-.051,0-.1,0-.152A8.865,8.865,0,0,0,257.046,264a1.046,1.046,0,1,0,0,2.092,6.771,6.771,0,0,1,6.763,6.763,6.893,6.893,0,0,1-.038.716,8.867,8.867,0,0,0-5.54,8.209,1.046,1.046,0,1,0,2.092,0,6.771,6.771,0,0,1,6.763-6.763,1.046,1.046,0,0,0,0-2.092Z" transform="translate(-199.648 -227.185)" fill="#1b76af"/>
  </g>
</svg>
