<svg xmlns="http://www.w3.org/2000/svg" width="66.122" height="66" viewBox="0 0 66.122 66">
  <g id="Group_1971" data-name="Group 1971" transform="translate(-155 -849)">
    <g id="Rectangle_736" data-name="Rectangle 736" transform="translate(155 849)" fill="#1b76af" stroke="#707070" stroke-width="1" opacity="0">
      <rect width="66" height="66" stroke="none"/>
      <rect x="0.5" y="0.5" width="65" height="65" fill="none"/>
    </g>
    <g id="sunglasses" transform="translate(155 769.845)">
      <path id="Path_874" data-name="Path 874" d="M63.683,114.93,55.54,100.412a2.91,2.91,0,0,0,.022-3.431,12.182,12.182,0,0,0-1.714-1.908.969.969,0,1,0-1.3,1.438,10.252,10.252,0,0,1,1.441,1.6.969.969,0,1,1-1.57,1.134,8.333,8.333,0,0,0-4.718-3.2L43.8,95.07a.969.969,0,1,1,.472-1.879l3.906.981c.265.067.539.148.815.242a.969.969,0,1,0,.626-1.833c-.326-.111-.652-.208-.969-.288l-3.906-.981a2.906,2.906,0,1,0-1.416,5.637l3.906.981a6.392,6.392,0,0,1,3.619,2.453,2.9,2.9,0,0,0,3.077,1.114l5.023,8.955a13.02,13.02,0,0,0-9.422-4.028h-4.9A9.989,9.989,0,0,0,36.7,110.3H29.423a9.989,9.989,0,0,0-7.932-3.873h-4.9a13.019,13.019,0,0,0-9.422,4.028l5.023-8.955a2.9,2.9,0,0,0,3.077-1.113,6.392,6.392,0,0,1,3.619-2.454l3.906-.981a2.906,2.906,0,1,0-1.416-5.637l-3.906.981a12.212,12.212,0,0,0-6.915,4.688,2.91,2.91,0,0,0,.022,3.431L2.439,114.93A2.5,2.5,0,0,0,0,117.43v2.046a2.506,2.506,0,0,0,2.5,2.5H3.6a13.058,13.058,0,0,0,11.042,11.66.969.969,0,1,0,.287-1.916,11.18,11.18,0,0,1-9.454-10.994V119.48a11.131,11.131,0,0,1,11.119-11.119h4.9a8.139,8.139,0,0,1,7.754,10.609c-1.511,5.536-4.506,11.335-10.153,12.606a.969.969,0,1,0,.426,1.89c5.744-1.294,9.072-6.328,10.955-11.883h5.176c2.708,8,7.471,12.2,13.88,12.2a13.073,13.073,0,0,0,13-11.805h1.095a2.506,2.506,0,0,0,2.5-2.5V117.43A2.5,2.5,0,0,0,63.683,114.93ZM12.131,98.115a10.271,10.271,0,0,1,5.816-3.943l3.906-.981a.969.969,0,1,1,.472,1.879l-3.906.981a8.333,8.333,0,0,0-4.718,3.2.969.969,0,0,1-1.57-1.134ZM3.538,120.041H2.5a.573.573,0,0,1-.566-.566V117.43a.574.574,0,0,1,.566-.566H3.8A14.349,14.349,0,0,0,3.538,120.041Zm27.531-.395a13.587,13.587,0,0,0,.359-1.535h3.266a13.478,13.478,0,0,0,.359,1.535Zm3.5-3.473H31.556a9.968,9.968,0,0,0-.943-3.939h4.895A9.968,9.968,0,0,0,34.566,116.174Zm26.081,4.554a11.131,11.131,0,0,1-11.119,11.119c-7.28,0-10.915-6.234-12.758-13.273a8.142,8.142,0,0,1,7.861-10.213h4.9A11.132,11.132,0,0,1,60.647,119.48Zm3.538-1.253a.573.573,0,0,1-.566.566H62.584a14.31,14.31,0,0,0-.263-3.178h1.3a.574.574,0,0,1,.566.566Z" transform="translate(0 0)" fill="#1b76af"/>
    </g>
  </g>
</svg>
