<svg xmlns="http://www.w3.org/2000/svg" width="50.581" height="43.705" viewBox="0 0 50.581 43.705">
  <g id="Line" transform="translate(-2 -4.981)">
    <path id="Path_873" data-name="Path 873" d="M47.982,23.4a4.6,4.6,0,0,0-2.69.862l-5.357,3.805V26.844A5.748,5.748,0,0,0,34.188,21.1h-.264a9.2,9.2,0,1,0-12.116,0H16.324a6.9,6.9,0,1,0-10.059.218A5.748,5.748,0,0,0,2,26.844V42.938a5.748,5.748,0,0,0,5.748,5.748h26.44a5.748,5.748,0,0,0,5.748-5.748V41.72l5.322,3.805a4.6,4.6,0,0,0,7.323-3.736V27.994A4.6,4.6,0,0,0,47.982,23.4ZM20.968,14.2a6.9,6.9,0,1,1,6.9,6.9A6.9,6.9,0,0,1,20.968,14.2ZM11.2,11.9a4.6,4.6,0,1,1-4.6,4.6,4.6,4.6,0,0,1,4.6-4.6Zm26.44,31.038a3.449,3.449,0,0,1-3.449,3.449H7.748A3.449,3.449,0,0,1,4.3,42.938V26.844A3.449,3.449,0,0,1,7.748,23.4h26.44a3.449,3.449,0,0,1,3.449,3.449Zm12.645-1.15a2.3,2.3,0,0,1-3.69,1.9L39.935,38.9V30.856l6.656-4.748a2.3,2.3,0,0,1,3.69,1.885Z" transform="translate(0)" fill="#1b76af"/>
  </g>
</svg>
