<svg xmlns="http://www.w3.org/2000/svg" width="44.452" height="43.614" viewBox="0 0 44.452 43.614">
  <g id="update" transform="translate(-44.461 -48.449)">
    <path id="Path_875" data-name="Path 875" d="M78.967,48.449A21.682,21.682,0,0,0,61.76,56.855l-1.156-.87a1.051,1.051,0,0,0-1.657.62l-1.237,5.746A1.051,1.051,0,0,0,59.238,63.5L64.4,60.7a1.051,1.051,0,0,0,.131-1.765l-1.093-.818A19.708,19.708,0,0,1,98.648,69.257a1.052,1.052,0,0,0,2.1-.088A21.842,21.842,0,0,0,78.967,48.449Z" transform="translate(-11.836 0)" fill="#1b76af"/>
    <path id="Path_876" data-name="Path 876" d="M85.973,262.7l-5.165,2.792a1.051,1.051,0,0,0-.131,1.765l1.093.818a19.708,19.708,0,0,1-35.205-11.137,1.052,1.052,0,0,0-2.1.088,21.811,21.811,0,0,0,38.989,12.314l1.161.87a1.051,1.051,0,0,0,1.657-.62l1.231-5.742a1.051,1.051,0,0,0-1.528-1.148Z" transform="translate(0 -185.681)" fill="#1b76af"/>
  </g>
</svg>
