<svg xmlns="http://www.w3.org/2000/svg" width="56" height="56" viewBox="0 0 56 56">
  <g id="Group_155926" data-name="Group 155926" transform="translate(427.701 -1023.842)">
    <path id="Path_13094" data-name="Path 13094" d="M-399.7,1079.841a28.031,28.031,0,0,1-28-28v-20.2a1.069,1.069,0,0,1,.314-.756l6.732-6.732a1.07,1.07,0,0,1,1.167-.232,1.071,1.071,0,0,1,.661.989v26.929a19.148,19.148,0,0,0,19.125,19.126,19.148,19.148,0,0,0,19.125-19.126v-25.2l-11.322,5.66v19.535a7.812,7.812,0,0,1-7.8,7.8,7.812,7.812,0,0,1-7.8-7.8v-19.753l-4.59-4.59v24.343a12.408,12.408,0,0,0,12.394,12.394,12.408,12.408,0,0,0,12.393-12.394v-13.465a1.072,1.072,0,0,1,1.071-1.071,1.072,1.072,0,0,1,1.071,1.071v13.465a14.553,14.553,0,0,1-14.536,14.536,14.553,14.553,0,0,1-14.536-14.536v-26.929a1.07,1.07,0,0,1,.662-.989,1.07,1.07,0,0,1,1.167.232l6.732,6.732a1.069,1.069,0,0,1,.314.756v20.2a5.667,5.667,0,0,0,5.661,5.66,5.667,5.667,0,0,0,5.661-5.66v-20.2a1.071,1.071,0,0,1,.592-.957l13.465-6.732a1.07,1.07,0,0,1,1.042.047,1.071,1.071,0,0,1,.508.911v26.929a21.293,21.293,0,0,1-21.268,21.269,21.293,21.293,0,0,1-21.268-21.269V1027.5l-4.59,4.59v19.753A25.886,25.886,0,0,0-399.7,1077.7a25.886,25.886,0,0,0,25.857-25.857v-20.2a1.071,1.071,0,0,1,1.071-1.07,1.071,1.071,0,0,1,1.071,1.07v20.2A28.031,28.031,0,0,1-399.7,1079.841Z" transform="translate(0 0.001)" fill="#0e689d"/>
  </g>
</svg>
